<svg xmlns="http://www.w3.org/2000/svg" width="256" height="256"><path fill-opacity=".016" d="M0 128.004v128.004l128.25-.254 128.25-.254.254-127.75L257.008 0H0v128.004m.485.496c0 70.4.119 99.053.265 63.672.146-35.38.146-92.98 0-128C.604 29.153.485 58.1.485 128.5" fill="#1976D2" fill-rule="evenodd"/><path fill-opacity=".33" d="M117 8.198c-10.952.805-25.211 4.221-36.585 8.765-17.457 6.974-38.505 19.869-50.852 31.154l-5.666 5.178.599 12.103c.769 15.505 3.279 41.231 4.842 49.602l1.213 6.5-3.276 4.327c-5.082 6.713-4.668 8.901 5.621 29.694 4.893 9.889 9.805 20.75 10.916 24.137 1.11 3.387 2.536 7.123 3.167 8.304 1.407 2.628 6.793 6.029 9.556 6.034 1.394.003 3.758 2.424 7.5 7.68 6.654 9.346 19.029 21.992 28.465 29.089 8.056 6.058 27.308 16.005 32.66 16.874 7.119 1.155 24.403-6.598 38.146-17.112 4.333-3.315 9.55-7.236 11.593-8.713 2.043-1.478 7.687-7.897 12.542-14.265 5.284-6.93 9.677-11.746 10.943-11.996 1.164-.229 5.041-.93 8.616-1.556 8.39-1.471 13.321-4.723 16.412-10.823 4.02-7.934 5.588-15.91 5.588-28.432 0-13.046-1.262-21.269-3.673-23.933-1.543-1.705-1.508-2.659.517-14.069 3.209-18.077 4.163-27.299 4.842-46.804l.611-17.565-7.398-6.045c-23.022-18.809-52.045-32.891-75.841-36.797C136.881 7.694 128.646 7.341 117 8.198m46.5 12.987c19.731 8.545 40.682 21.532 51.892 32.167l3.318 3.148.67 16.5c.369 9.075.229 23.232-.311 31.46-.54 8.229-.852 15.091-.693 15.25.484.483 3.54-21.518 4.613-33.21.555-6.05 1.01-15.577 1.01-21.172L224 55.156l-4.25-3.667c-11.171-9.636-32.456-22.169-47.25-27.821-10.601-4.049-16.155-5.582-9-2.483m12.583 17.18c.23.2 1.542.9 2.917 1.555 2.357 1.122 2.389 1.102.559-.365-1.593-1.276-4.848-2.391-3.476-1.19M194.5 43c.995 1.1 2.035 2 2.31 2 .275 0-.315-.9-1.31-2-.995-1.1-2.035-2-2.31-2-.275 0 .315.9 1.31 2m-8.2 17c0 3.025.187 4.263.416 2.75.229-1.513.229-3.987 0-5.5s-.416-.275-.416 2.75m-1.068 11c0 1.925.206 2.713.457 1.75.252-.963.252-2.537 0-3.5-.251-.963-.457-.175-.457 1.75M216 129.378c0 .207.787.995 1.75 1.75 1.586 1.243 1.621 1.208.378-.378-1.307-1.666-2.128-2.195-2.128-1.372m5.1 4.327c.729 1.212 1.54 1.989 1.803 1.726.263-.263-.333-1.255-1.324-2.205-1.722-1.649-1.744-1.628-.479.479m2.095 6.795c.02 1.65.244 2.204.498 1.231.254-.973.237-2.323-.037-3-.274-.677-.481.119-.461 1.769m1.125 12.5c0 3.575.182 5.037.403 3.25.222-1.787.222-4.713 0-6.5-.221-1.787-.403-.325-.403 3.25m-65.252-2.096c-1.697 2.384-2.068 4.415-2.068 11.334 0 4.636.33 8.759.733 9.162.933.932 6.282-20.198 5.578-22.033-.799-2.08-1.969-1.656-4.243 1.537m-51.292 18.168c-1.024 6.979 3.414 14.856 9.895 17.564 4.62 1.93 5.627 1.79 4.344-.607-.804-1.503-1.727-1.837-3.887-1.405-2.289.458-3.263.02-5.074-2.279-1.839-2.334-2.139-3.654-1.669-7.345.44-3.465.148-5.051-1.272-6.897l-1.843-2.396-.494 3.365m79.888 7.178c.482 4.897-1.206 8.811-4.413 10.229-2.066.914-3.766 3.34-2.927 4.178.84.841 5.536-3.843 7.049-7.031 1.72-3.623 2.236-11.626.75-11.626-.483 0-.689 1.912-.459 4.25M105 206.395c0 1.343.281 3.173.624 4.066.571 1.488.781 1.482 2.5-.073 2.451-2.218 2.371-2.834-.624-4.796-2.431-1.593-2.5-1.571-2.5.803" fill="#1976D2" fill-rule="evenodd"/><path fill-opacity=".173" d="M109.5 9.109c-24.793 3.572-55.841 18.688-79.25 38.584L25 52.155v11.5c0 14.002 1.554 32.17 3.989 46.639l1.816 10.795-3.402 5.056C25.531 128.926 24 132.42 24 133.91c0 1.491 4.045 10.921 8.988 20.956 4.944 10.035 9.972 21.483 11.173 25.44 2.508 8.255 5.844 12.229 11.093 13.214 3.007.564 4.554 2.002 10.028 9.323 13.038 17.437 32.083 33.056 49.899 40.924 10.223 4.514 14.639 4.605 24.335.506 17.962-7.595 35.526-21.21 48.084-37.273l8.99-11.5 7.836-1.297c14.44-2.389 18.676-6.461 22.573-21.699 3.334-13.038 2.346-35.886-1.791-41.428-1.758-2.354-1.757-2.752.025-12.005 2.751-14.292 4.71-32.641 5.398-50.571l.614-16-7.022-5.727c-23.454-19.127-51.965-32.86-77.149-37.163-10.02-1.711-27.553-1.946-37.574-.501m43.502 8.196c.274.257 3.648 1.707 7.498 3.223 15.519 6.11 34.086 16.336 44.082 24.277 15.415 12.247 13.918 7.992 13.918 39.549 0 14.93-.311 30.071-.692 33.646-.46 4.322-.382 5.732.234 4.207 1.747-4.328 4.909-29.72 5.99-48.098l1.081-18.392-3.705-3.108C206.787 40.339 183.736 27.049 167 21.24c-8.743-3.035-14.876-4.759-13.998-3.935M66.58 37.711c-7.905 4.082-12.644 7.33-17.163 11.76l-6.242 6.121 1.902 9.275c1.047 5.101 2.245 9.866 2.663 10.589.418.723 2.766 2.837 5.218 4.698 5.679 4.31 16.904 19.064 21.924 28.815 2.132 4.142 5.342 11.581 7.132 16.531 6.327 17.49 10.643 24.16 18.503 28.596 6.506 3.672 7.427 4.719 17.886 20.327C127.338 187.757 133 198.344 133 201.719c0 2.619 3.314 5.471 10.562 9.092 7.634 3.813 12.03 4.645 17.195 3.254 5.568-1.499 14.191-8.795 14.26-12.065.104-4.919 2.813-17.603 4.988-23.35 1.218-3.218 4.571-9.293 7.451-13.5 7.107-10.382 8.544-13.393 8.544-17.91 0-4.562 3.773-20.303 5.21-21.74.667-.667.798 0 .394 2-.334 1.65-.976 5.767-1.426 9.149l-.819 6.148 4.36-4.648 4.359-4.649-2.425 5c-1.334 2.75-3.645 7.902-5.135 11.448-1.491 3.547-4.218 8.806-6.061 11.687-3.201 5.004-3.325 5.55-2.767 12.203.763 9.108-1.799 14.97-8.178 18.708-4.044 2.37-5.466 4.622-5.498 8.704-.01 1.284.792 1.75 3.011 1.75 2.372 0 4.27-1.273 8.797-5.899 5.626-5.75 5.941-5.916 12.506-6.619 13.231-1.417 18.071-6.049 21.276-20.357 1.271-5.673 1.525-10.289 1.1-20-.305-6.944-.838-13.534-1.185-14.644-.575-1.84-6.183-6.481-7.831-6.481-.378 0-.688 1.139-.688 2.532 0 2.26-2.435 9.466-3.199 9.469-.166.001-.149-4.67.037-10.38.261-8.034-.022-11.076-1.25-13.452-.874-1.688-1.609-4.105-1.635-5.369-.035-1.765-.633-1.172-2.568 2.548-1.388 2.666-2.781 4.589-3.097 4.274-.821-.821 3.412-12.017 7.355-19.455 3.682-6.947 4.206-12.068 1.857-18.167-.741-1.925-1.382-2.937-1.424-2.25-.175 2.874-1.921.923-2.996-3.348-.637-2.528-3.159-8.582-5.605-13.452-4.433-8.826-4.441-8.861-2.351-10.324 2.092-1.466 2.089-1.478-1.173-5.537-5.827-7.251-15.835-10.751-22.636-7.915l-2.815 1.173 3.438.577c2.979.499 3.657 1.176 5.086 5.076.906 2.475 2.035 5.392 2.508 6.482 1.008 2.323 1.002 3.147-.309 45.518-1.064 34.402-1.607 38.37-6.749 49.353-1.326 2.831-3.294 6.272-4.374 7.647-1.868 2.377-1.892 2.839-.49 9.419.81 3.806 1.342 9.881 1.182 13.5l-.292 6.581-2.778-11.202c-3.179-12.82-6.99-23.554-8.549-24.074-.586-.195-2.445 1.587-4.132 3.961C147.558 166.938 140.608 176 139.777 176c-.527 0 .917-3.416 3.208-7.591 2.292-4.175 4.02-7.721 3.841-7.88-.179-.158-2.576-1.429-5.326-2.824-17.29-8.767-34.688-39.921-45.066-80.698-4.072-15.999-4.463-22.62-.532-9.007 4.554 15.769 11.879 34.654 19.588 50.5 10.421 21.419 18.619 31.513 29.584 36.422l4.278 1.915 2.928-4.669c1.61-2.567 3.86-5.68 4.998-6.918 2.765-3.005 7.04-2.932 9.474.162l1.897 2.411 2.179-9.161c3.059-12.86 4.43-24.083 3.672-30.059-2.346-18.495-4.783-34.608-5.689-37.603-1.275-4.214-5.116-9.558-7.97-11.085-1.579-.845-3.431-.743-7.709.423-8.763 2.388-17.927 2.956-27.971 1.735-10.9-1.325-17.744-3.711-26.057-9.084L93 49.044v3.478c0 3.714-1.308 4.608-2.526 1.728-.407-.962-1.049-5.656-1.427-10.43-.377-4.774-1.272-9.387-1.989-10.25-2.605-3.139-8.808-1.885-20.478 4.141M53.704 48.886c-6.073 6.492-6.86 10.467-3.28 16.575 2.631 4.489 5.844 7.109 7.479 6.099 1.256-.776 5.546-23.949 4.795-25.904-1.122-2.925-4.307-1.782-8.994 3.23M207.818 162c-.332.825-1.596 4.425-2.811 8-1.215 3.575-3.048 7.963-4.074 9.75-1.026 1.787-1.477 3.25-1.003 3.25 1.805 0 7.032-7.147 8.084-11.053 1.107-4.11.936-12.768-.196-9.947m-100.326 7.189c-1.348 7.186 3.582 14.864 11.726 18.26 4.904 2.046 5.112 1.984 3.196-.941-1.194-1.821-2.225-2.342-3.837-1.938-1.375.345-3.119-.189-4.64-1.421-2.115-1.714-2.406-2.701-2.203-7.471.176-4.152-.23-6.069-1.659-7.833l-1.892-2.337-.691 3.681m80.163 2.489c-.373.374-.412 2.101-.086 3.839.807 4.3-1.793 10.238-5.021 11.465-1.401.532-2.548 1.71-2.548 2.615 0 1.478.231 1.496 2.25.173 4.316-2.829 6.75-7.667 6.75-13.418 0-5.427-.132-5.887-1.345-4.674M140 193.384c0 3.394 5.758 9.616 8.9 9.616 1.155 0 2.1-.353 2.1-.784 0-.431-2.475-3.229-5.5-6.216-5.412-5.345-5.5-5.387-5.5-2.616M166 197c-4.567 5.272-4.931 6-2.999 6 3.092 0 8.999-6.17 8.999-9.4 0-1.43-.18-2.6-.401-2.6-.221 0-2.74 2.7-5.599 6m-61 11c0 4.483.726 4.852 4.124 2.101l2.346-1.9-2.485-2.067C105.494 203.23 105 203.461 105 208" fill="#1976D2" fill-rule="evenodd"/><path fill-opacity=".986" d="M114.5 8.689c-27.856 3.61-55.96 16.425-81.9 37.344l-7.9 6.37.635 16.549c.616 16.037 2.38 33.448 4.671 46.079.985 5.432.904 6.431-.697 8.679-5.111 7.176-5.395 7.831-4.885 11.246.285 1.9 4.546 11.575 9.471 21.5 4.925 9.924 9.697 20.637 10.604 23.806 2.124 7.419 5.546 11.463 10.848 12.823 3.508.899 4.811 2.034 8.388 7.308 13.175 19.42 35.418 37.108 56.773 45.146 7.566 2.848 9.891 2.564 21.305-2.61 17.487-7.925 34.569-21.417 45.565-35.989 8.612-11.412 10.363-12.852 15.69-12.905 6.411-.063 13.53-2.813 16.735-6.464 6.425-7.317 9.828-22.168 8.828-38.524-.735-12.019-2.006-17.598-4.303-18.883-1.367-.765-1.435-1.585-.478-5.778 3.186-13.969 5.578-34.607 6.716-57.952l.637-13.066-4.952-4.434c-16.687-14.943-42.433-29.211-64.081-35.513-15.355-4.47-34.803-6.4-47.67-4.732M158 19.901c4.125 1.542 14.25 6.213 22.5 10.379 11.351 5.732 17.676 9.721 26 16.397l11 8.823.812 8c.833 8.217.169 48.067-.951 57-.935 7.453.466 4.909 2.154-3.912 2.392-12.503 4.317-30.046 5.066-46.174l.7-15.086-8.429-6.582c-16.459-12.852-34.839-22.86-52.71-28.7-11.667-3.812-16.241-3.92-6.142-.145M78 31.94c-4.82 1.481-18.549 8.87-23.592 12.696-2.801 2.125-6.546 5.536-8.323 7.579l-3.23 3.715 1.981 9.752 1.982 9.752 6.275 5.533c11.795 10.401 21.777 25.998 28.086 43.886 6.034 17.109 12.162 26.284 20.253 30.323 4.898 2.445 5.555 3.203 15.448 17.824 10.446 15.437 13.052 20.063 15.098 26.798 1.586 5.224 2.205 5.986 7.377 9.092 4.394 2.64 5.645 3.932 5.645 5.834 0 3.309-2.407 2.411-2.816-1.051-.174-1.47-.857-2.673-1.518-2.673-2.872 0-8.517-5.047-9.204-8.229-.388-1.799-1.533-4.905-2.544-6.902-1.463-2.891-2.601-3.775-5.581-4.334-12.608-2.365-20.803-13.032-18.366-23.907 1.319-5.882.851-6.83-4.693-9.523-2.555-1.242-7.151-5.004-10.212-8.36-13.803-15.132-24.942-26.149-29.315-28.992-2.612-1.699-4.531-3.306-4.265-3.572.713-.713 10.559 6.032 17.921 12.277l6.419 5.446-3.936-9.702c-6.852-16.889-16.693-32.369-26.919-42.344-5.055-4.93-5.902-6.317-6.719-11-.684-3.915-.815-.646-.489 12.142.483 18.91-.943 29.885-4.471 34.414-.986 1.265-3.705 4.655-6.042 7.533-2.676 3.295-4.25 6.24-4.25 7.953 0 1.496 4.045 10.931 8.988 20.966 4.944 10.035 9.942 21.384 11.106 25.219 3.027 9.963 3.506 10.14 25.161 9.311 20.085-.77 20.819-.585 30.764 7.723 3.565 2.978 9.856 7.931 13.981 11.007 4.125 3.075 9.75 7.463 12.5 9.752 6.423 5.344 14.157 8.247 21.975 8.247 7.393 0 9.293-.685 17.549-6.334 6.296-4.307 8.108-6.303 16.476-18.159 5.4-7.65 9.489-10.256 17.262-11.003 9.217-.885 13.516-3.454 16.714-9.991 3.766-7.697 5.745-20.088 4.972-31.138-.894-12.788-1.852-15.808-6.022-18.989-1.957-1.492-3.676-2.555-3.822-2.362-.145.193-.903 3.051-1.684 6.351l-1.42 6-.286-10.941c-.157-6.017-.661-11.417-1.119-12-.459-.582-1.161-2.859-1.561-5.059l-.727-4-2.45 4.5c-4.529 8.321-1.776-.624 3.28-10.655 4.996-9.912 5.602-13.711 3.404-21.345-1.074-3.733-1.426-4.159-2.061-2.5-.601 1.57-.872 1.677-1.262.5-2.471-7.456-4.523-12.524-7.431-18.356-3.379-6.776-3.682-10.393-.779-9.279 2.208.847 1.847-.129-1.712-4.622C194.858 40.508 188.629 37 182.495 37c-2.947 0-5.935.622-7.054 1.468-1.862 1.409-1.832 1.47.75 1.5 1.48.018 2.969.482 3.309 1.032.36.582-.641 1-2.394 1-2.153 0-3.525.764-4.809 2.678-4.358 6.495-10.901 12.073-16.797 14.319-7.454 2.839-24.647 3.834-35.277 2.041-7.772-1.311-18.85-6.151-23.973-10.473L93 47.822l-.158 2.339c-.086 1.286-.136 2.902-.111 3.589.075 2.003-1.536 1.441-2.241-.782-.355-1.118-.791-4.831-.968-8.25C88.859 31.95 86.496 29.329 78 31.94M59.428 45.327c-.351.914-.969 1.457-1.374 1.206-.884-.546-6.358 5.077-7.934 8.151-2.4 4.681-.756 10.53 4.281 15.237 1.425 1.331 2.846 2.165 3.158 1.854.811-.812 4.477-18.652 4.635-22.562.155-3.84-1.754-6.523-2.766-3.886M183.655 60.75c-.347 4.263-1.094 11.125-1.661 15.25-.566 4.125-1.242 16.975-1.503 28.556-.514 22.875-1.96 31.516-6.907 41.277-2.682 5.294-4.584 7.286-4.584 4.803 0-2.237-4.93-7.636-6.973-7.636-2.034 0-8.118 6.342-10.496 10.94-1.877 3.629-2.373 3.692-7.713.967-15.426-7.87-29.259-30.962-43.967-73.403-5.699-16.442-6.214-15.818-1.41 1.711 10.4 37.945 27.863 67.32 44.581 74.989l4.805 2.205-4.01 7.546c-3.879 7.299-3.91 7.431-.945 4.045 1.686-1.925 6.342-8.118 10.347-13.763 4.474-6.306 7.859-10.156 8.781-9.986 1.939.357 5.322 8.959 9.059 23.037l2.976 11.212-.472-8c-.26-4.4-1.012-10.328-1.671-13.173-1.148-4.947-1.087-5.306 1.376-8.234 1.417-1.684 3.539-5.634 4.715-8.777 4.359-11.65 5.234-17.963 5.519-39.816.151-11.55.613-27.862 1.026-36.25.786-15.949.214-20.859-.873-7.5m15.459 71.263c-.663 2.215-1.615 7.608-2.114 11.986-1.026 8.993-1.144 9.267-9.145 21.195-6.732 10.037-10.715 20.751-11.589 31.173-.572 6.819-.791 7.308-5.516 12.304-3.151 3.332-4.771 5.855-4.505 7.016.333 1.453.686 1.217 1.777-1.187.749-1.65 3.103-4.575 5.232-6.5 3.105-2.808 4.006-4.447 4.558-8.291.611-4.257 1.131-5.04 4.658-7.016 7.296-4.086 11.138-13.548 8.711-21.454-.977-3.184-.798-3.935 1.86-7.799 3.597-5.227 14.662-29.87 11.951-26.612a144.849 144.849 0 0 0-3.933 5c-1.828 2.448-1.998 2.499-2.027.606-.018-1.137.449-4.668 1.037-7.848 1.266-6.851.746-8.251-.955-2.573m6.426 37.737c-1.495 4.262-3.364 8.762-4.153 10-1.693 2.657-.37 3.017 1.837.5 2.726-3.109 4.65-7.817 5.35-13.094.376-2.836.459-5.156.185-5.156-.275 0-1.723 3.488-3.219 7.75m-97.933-3.168c-3.17 8.262 3.979 19.61 13.876 22.024 2.965.723 2.973.714 1.386-1.689-1.107-1.675-2.712-2.512-5.23-2.727-4.479-.383-5.812-2.555-5.519-8.992.145-3.179-.374-5.656-1.566-7.476-2.087-3.185-2.153-3.21-2.947-1.14M187 175.953c0 6.165-1.642 9.919-4.671 10.679-1.412.355-2.329 1.33-2.329 2.476 0 2.65 1.378 2.361 4.73-.992 3.415-3.415 5.653-10.097 4.753-14.192-1.013-4.613-2.483-3.412-2.483 2.029m-73.457-2.022c-.317.512-.118 1.213.441 1.559.559.345 1.016-.074 1.016-.931 0-1.757-.6-2.015-1.457-.628m71.536 2.652c.048 1.165.285 1.402.604.605.289-.722.253-1.585-.079-1.917-.332-.332-.568.258-.525 1.312m-18.44 19.997c-2.674 3.042-4.628 5.764-4.343 6.049 1.1 1.1 6.747-2.811 8.247-5.713 3.015-5.829 1.071-5.996-3.904-.336M140 192.834c0 2.867 3.139 7.004 6.537 8.617 1.994.946 3.803 1.543 4.019 1.326.217-.217-2.069-2.827-5.081-5.801-3.011-2.974-5.475-4.838-5.475-4.142m-56.238.873c1.244.239 3.044.23 4-.02s-.062-.446-2.262-.435c-2.2.011-2.982.216-1.738.455m-1.325 3.043c1.656 1.832 3.837 3.199 5 3.134 2.009-.113 2.011-.129.063-.597-1.1-.265-3.35-1.675-5-3.134l-3-2.653 2.937 3.25M91 194.714c.825.306 2.4.97 3.5 1.476 1.968.906 1.969.895.059-.635-1.068-.855-2.643-1.519-3.5-1.476-1.347.068-1.355.155-.059.635M98.5 199c.995 1.1 2.035 2 2.31 2 .275 0-.315-.9-1.31-2-.995-1.1-2.035-2-2.31-2-.275 0 .315.9 1.31 2m-7.687 1.683c.721.289 1.584.253 1.916-.079.332-.332-.258-.568-1.312-.525-1.165.048-1.402.285-.604.604m3.187.53c.275.293 1.888 1.238 3.583 2.099 2.248 1.142 3.084 1.235 3.084.342 0-.674-.713-1.257-1.584-1.295-.87-.039-2.483-.432-3.583-.874s-1.775-.564-1.5-.272m10.375 4.912c.344 1.719.625 3.744.625 4.5 0 2.031 2.423 1.67 4.547-.677 1.822-2.013 1.802-2.096-1.095-4.464-3.946-3.224-4.823-3.087-4.077.641m8.063 4.976c-1.35 2.184 17.848 19.948 21.462 19.86.88-.022.086-.697-1.765-1.5-3.452-1.499-19.135-16.052-19.135-17.757 0-.522.787-.331 1.75.424 1.586 1.243 1.621 1.208.378-.378-1.613-2.056-1.794-2.1-2.69-.649m10.549 7.592c5.362 5.05 15.408 11.308 18.153 11.306.748 0-1.431-1.321-4.841-2.934-3.411-1.614-8.136-4.654-10.5-6.756-6.971-6.198-8.78-7.238-2.812-1.616M139.5 231c-3.182.57-2.364.725 4 .758 5.368.029 7.178-.221 5.5-.758-2.962-.949-4.201-.949-9.5 0" fill="#1976D2" fill-rule="evenodd"/></svg>